<?xml version="1.0" standalone="no"?><!DOCTYPE svg PUBLIC "-//W3C//DTD SVG 1.1//EN" "http://www.w3.org/Graphics/SVG/1.1/DTD/svg11.dtd"><svg class="icon" width="32px" height="32px" viewBox="0 0 1365 1024" version="1.1" xmlns="http://www.w3.org/2000/svg"><path d="M256 256a85.364 85.364 0 0 1 85.333 85.333v597.334A85.364 85.364 0 0 1 256 1024H85.333A85.392 85.392 0 0 1 0 938.667V341.333A85.392 85.392 0 0 1 85.333 256zM768 0a85.364 85.364 0 0 1 85.333 85.333v853.334A85.364 85.364 0 0 1 768 1024H597.333A85.392 85.392 0 0 1 512 938.667V85.333A85.392 85.392 0 0 1 597.333 0z m512 426.667A85.364 85.364 0 0 1 1365.333 512v426.667A85.364 85.364 0 0 1 1280 1024h-170.667A85.364 85.364 0 0 1 1024 938.667V512a85.364 85.364 0 0 1 85.333-85.333z" fill="#1F8ACB" /></svg>
