<?xml version="1.0" standalone="no"?><!DOCTYPE svg PUBLIC "-//W3C//DTD SVG 1.1//EN" "http://www.w3.org/Graphics/SVG/1.1/DTD/svg11.dtd"><svg class="icon" width="32px" height="32.00px" viewBox="0 0 1024 1024" version="1.1" xmlns="http://www.w3.org/2000/svg"><path d="M524.95050347 44.17066667c19.1722752-2.30436053 42.7228352-1.93566293 56.18029866 14.24094506 15.76182293 20.0940192 16.49921813 48.16112533 9.5861376 71.84994667-8.61830613 29.8184192-21.66098453 58.25422187-37.60715626 84.8465376-18.43488 31.20103467-44.1515392 57.10204267-68.71601707 83.4178336-21.3844608 23.3662112-47.10112 42.07761493-72.21864427 61.11162881-10.00092267 7.5583008-19.21836267 16.86791573-24.19578026 28.57406506-2.67305813 12.02875947 3.36436587 23.87317013 10.18527146 33.3671328 22.30620587 16.7757408 51.20288 23.82708267 70.55950507 44.65849814 17.60531093 17.8818336 29.081024 41.20195733 36.50106347 64.93686613 8.4800448 23.9192576-13.7800736 44.24371307-32.99843627 54.24463573-24.74882667 9.81657387-52.21679893 4.9774176-77.6569344 0.7373952-13.73398613-2.0278368-25.394048-10.09309653-35.44105707-19.21836266-29.03493653-26.40796587-57.14812907-53.87593813-84.52392746-82.03521814-23.7349088-26.6844896-50.281136-58.48465813-43.6445792-96.96747094 8.06525973-35.9019296 27.56014613-69.72993493 55.9498624-93.46484373 22.58272853-18.84966507 44.05936427-39.12803413 63.27772693-61.43423893 39.35846933-48.437648 72.12646933-101.990976 113.65103787-148.7233984 16.31486933-18.34270613 36.454976-35.07236053 61.1116288-40.141952zM492.96598613 328.3443488c-0.59913387-16.45313067 14.84007893-27.9749312 30.3714656-27.6062336 44.7045856-2.12001173 89.08656 9.44787627 133.837232 6.452208 14.5174688-0.27652373 30.002768-1.33652907 43.18370774 5.8991616 30.41755307 15.90008427 53.7837632 42.26196373 71.8038592 71.0203776 12.95050347 18.66531627 30.60190187 39.45064427 23.9192576 63.87686081-12.02875947 37.9297664-45.8106784 62.26380907-71.98820907 90.14656532-48.944608 45.39589333-93.1422336 95.49268053-139.27552107 143.6077184 11.982672 0.59913387 23.96534507 1.4747904 35.85584214 3.27219094-23.68882133-0.04608747-49.63591573-3.27219093-71.15863894 8.80265601-14.42529387 6.8209056-10.73831787 24.61056533-10.78440426 37.60715625-35.57931947 36.50106347-69.91428373 74.15430613-104.47968534 111.62320108-20.73924053 25.394048-45.8106784 47.60807893-61.43423893 76.87345172-7.9269984 12.95050347-14.60964267 28.25145387-28.85058773 35.48714454-19.77140907 10.92266667-43.36805653 8.1113472-65.07512854 8.15743466-25.48622187-1.42870293-56.96378027-2.2121856-72.49516693-26.08535572 1.33652907-24.05751893 16.49921813-43.4602304 29.2653728-62.67859414 27.46797227-39.5889056 58.85335573-76.18214293 90.423088-112.45277014 27.237536-28.15928 58.66900693-51.84810133 86.36741547-79.54650986 25.2096992-25.44013547 51.06461867-50.281136 75.26039893-76.68910187 42.49239893-45.16545707 87.7961184-87.93437973 126.18675733-136.78681387 6.77481813-7.32786453 3.8713248-17.6974848 3.9174112-26.63840213-34.9801856-15.6235616-66.54991893-37.97585387-97.47442986-60.37423359-17.60531093-11.6139744-30.41755307-32.30712747-27.37579734-53.96811201zM549.51498133 693.81585387c21.5227232-12.07484693 47.4698176-8.8487424 71.15863894-8.802656 32.53756373 4.33219733 63.41598827 21.29228693 83.32565973 47.56199254 22.4444672 29.40363413 40.74108587 61.6646752 59.72901227 93.32658133 20.9696768 33.27495893 54.3368096 57.47074027 71.52733653 93.28049599 4.7930688 8.06525973 3.3182784 17.60531093 3.59480107 26.5462272-7.7426496 6.95916693-15.0705152 16.591392-26.45405334 16.63747948-27.19144853 2.30436053-54.75159467 1.56696533-81.85086826-1.75131308-30.7401632-4.2400224-50.9724448-31.38538347-64.52208214-56.96378133-22.21403093-42.95327147-58.02378667-76.2282304-88.2109024-113.32842666-14.65573013-18.34270613-32.44538987-35.76366827-39.08194666-58.89944321 0.04608747-12.99659093-3.64088853-30.78625067 10.78440426-37.60715626z" /></svg>
