<?xml version="1.0" standalone="no"?><!DOCTYPE svg PUBLIC "-//W3C//DTD SVG 1.1//EN" "http://www.w3.org/Graphics/SVG/1.1/DTD/svg11.dtd"><svg class="icon" width="32px" height="32.00px" viewBox="0 0 1024 1024" version="1.1" xmlns="http://www.w3.org/2000/svg"><path d="M548.352 169.301333l-20.650667 3.413334-8.874666 25.941333c-4.949333 14.165333-9.386667 26.282667-9.898667 26.965333-0.682667 0.512-12.117333-8.704-25.6-20.650666L459.093333 183.125333l-25.770666 3.925334c-14.165333 2.218667-26.453333 4.096-27.306667 4.437333-0.853333 0.341333 27.477333 27.136 62.805333 59.562667 37.546667 34.474667 65.024 58.197333 65.706667 57.173333 1.194667-2.048 44.032-139.776 44.032-141.653333 0-1.706667-7.68-1.024-30.208 2.730666zM131.413333 255.317333c-8.021333 1.365333-17.066667 2.730667-20.138666 3.242667-7.509333 1.365333-17.066667 10.069333-18.261334 16.725333-1.194667 6.826667 137.728 650.581333 142.677334 660.821334 3.925333 8.533333 12.8 14.677333 22.357333 15.701333 5.461333 0.512 79.36-14.848 274.944-57.344 147.114667-31.914667 270.506667-58.88 274.090667-59.904 3.754667-1.024 8.704-3.925333 11.093333-6.826667 7.68-9.386667 7.509333-14.677333-1.877333-44.202666-4.778667-14.677333-8.362667-26.965333-8.021334-27.136 0.170667-0.341333 11.946667-3.072 26.112-6.144 28.330667-6.144 32.938667-8.704 36.010667-19.626667 2.048-7.338667 0.853333-9.045333-1.877333-2.901333-1.194667 2.389333-3.754667 5.461333-5.973334 6.826666-3.242667 2.218667-42.325333 10.922667-84.309333 18.944-6.144 1.194667-19.456 3.925333-29.866667 5.973334-10.24 2.048-18.944 3.072-19.114666 2.218666-0.853333-2.389333-16.042667-0.853333-18.261334 1.706667-1.024 1.365333-3.413333 2.901333-5.290666 3.584-3.413333 1.024-3.413333 1.024-0.170667-1.536 2.389333-1.706667 2.901333-3.072 1.706667-4.266667-2.730667-2.730667-7.509333-0.170667-6.314667 3.072 0.512 1.536-0.512 1.024-2.048-1.194666l-3.072-4.096-3.242667 4.096c-1.706667 2.218667-3.072 3.242667-2.901333 2.389333 0.512-3.754667-0.341333-4.949333-1.706667-2.730667-0.853333 1.365333-3.413333 2.56-5.632 2.56-2.048 0.170667-4.778667 0.853333-5.802666 1.365334-1.024 0.682667-1.877333 0.170667-1.877334-1.194667 0-1.365333 0.853333-1.877333 1.706667-1.365333 1.024 0.512 1.194667 0.170667 0.512-1.024-1.024-1.365333-2.048-1.536-3.413333-0.341334-1.194667 1.024-2.730667 1.365333-3.242667 0.682667-0.682667-0.512-2.218667 0-3.754667 1.194667-1.706667 1.365333-2.56 1.536-2.56 0.170666 0-1.024-1.706667-1.877333-3.754666-1.877333-2.218667 0-6.144-0.170667-9.045334-0.512-2.730667-0.170667-6.144 0.512-7.338666 1.706667-2.730667 2.56-7.168 2.901333-7.168 0.512 0-0.853333 1.365333-1.194667 3.072-0.512 1.536 0.512 2.389333 0.512 1.877333-0.170667-0.682667-0.682667-3.754667-1.536-6.656-1.877333-4.949333-0.682667-5.290667-0.512-2.56 1.536 2.901333 2.048 2.730667 2.218667-1.024 1.877333-2.218667-0.170667-3.925333-1.365333-3.754667-2.389333 0.682667-2.56-1.706667-2.389333-4.266666 0.170666-1.536 1.536-2.56 1.536-4.096-0.170666-1.877333-1.877333-1.706667-2.048 0.170666-1.024 1.706667 1.024 2.048 0.682667 1.024-0.853334-1.024-1.706667-2.218667-1.365333-4.778666 1.877334l-3.413334 4.096 1.194667-4.266667 1.194667-4.266667-2.56 4.266667c-1.536 2.389333-2.56 3.413333-2.730667 2.389333 0-3.072-8.192-3.925333-10.581333-1.194666-1.706667 2.048-2.389333 2.218667-3.754667 0.170666-2.730667-3.242667-10.069333-3.242667-8.704 0 0.853333 2.218667 0.512 2.218667-1.877333 0.170667-2.389333-1.877333-3.072-1.877333-3.754667-0.170667-0.512 1.706667-1.365333 1.365333-3.242667-0.853333-1.365333-1.706667-2.048-2.218667-1.536-1.365333 0.341333 1.024-0.853333 2.901333-2.901333 4.266666-3.242667 2.048-3.584 1.877333-1.536-0.341333 1.706667-2.048 1.706667-2.901333 0-4.437333-3.413333-2.730667-8.704-3.072-9.216-0.682667-0.170667 1.194667 0 1.365333 0.512 0.341333 0.341333-0.853333 1.536-1.194667 2.56-0.682666 1.024 0.682667-0.682667 2.56-3.754667 4.096-5.461333 2.901333-5.973333 2.901333-9.216-0.170667-2.389333-2.389333-3.754667-2.730667-4.608-1.194667-1.365333 2.048-22.016 3.413333-22.016 1.365334 0-0.682667 1.024-1.194667 2.218667-1.365334 8.192-1.024 13.141333-2.730667 13.141333-4.608 0-1.365333 3.242667-2.730667 8.533334-3.413333 4.608-0.682667 8.874667-1.877333 9.386666-2.730667 0.512-0.682667 2.048-1.024 3.413334-0.512s3.413333 0.341333 4.608-0.341333c1.194667-0.853333 3.072-1.536 3.925333-1.706667 1.024-0.170667 8.192-1.877333 16.213333-3.925333 8.021333-1.877333 19.968-4.778667 26.453334-6.144 6.656-1.536 12.8-2.901333 13.653333-3.242667 3.754667-1.194667 10.410667-2.730667 14.506667-3.413333 5.802667-1.024 27.477333-6.144 30.72-7.338667 1.365333-0.682667 3.072-1.024 3.584-0.853333 0.512 0 3.925333-0.682667 7.68-1.536 26.794667-6.826667 83.285333-19.797333 142.336-32.426667 8.874667-1.877333 17.749333-3.925333 19.626666-4.266666 1.877333-0.512 5.290667-1.194667 7.68-1.706667 5.632-1.194667 5.802667-1.365333 3.754667-6.997333-1.024-3.242667-2.56-4.608-4.778667-4.437334-1.706667 0.170667-106.837333 21.504-233.472 47.274667-126.634667 25.941333-232.96 47.104-236.373333 47.104-7.68 0-18.602667-6.144-23.210667-12.8-2.048-3.242667-13.312-42.496-27.989333-98.645333-13.653333-51.370667-24.917333-93.013333-25.429333-92.672-0.341333 0.512 2.048 13.994667 5.461333 30.378666 6.485333 31.573333 6.656 33.109333 9.386667 47.445334 2.56 13.482667 3.413333 17.92 6.314666 33.962666 1.365333 8.021333 3.242667 17.578667 4.096 21.333334 0.682667 3.925333 1.877333 11.946667 2.56 18.090666 0.512 6.144 1.365333 12.288 1.706667 13.653334 0.512 1.365333 1.194667 5.290667 1.706667 8.533333 0.341333 3.242667 1.024 7.509333 1.536 9.386667 0.341333 1.877333-0.170667 4.778667-1.024 6.656-1.024 1.877333-1.024 2.730667-0.170667 2.218666 0.853333-0.682667 1.706667 0 1.706667 1.365334s-0.853333 1.877333-1.706667 1.365333c-1.024-0.682667-1.365333 0.170667-0.682667 1.877333 0.853333 2.389333 0.512 2.901333-1.365333 2.218667-1.365333-0.682667-2.901333-0.341333-3.584 0.682667-0.682667 1.024-2.218667 0.682667-4.266667-1.194667-3.072-2.730667-3.242667-2.730667-2.218666-0.170667 1.194667 3.242667 0.170667 3.584-4.437334 1.194667-2.218667-1.194667-3.584-1.194667-4.437333 0.341333-0.853333 1.194667-0.512 1.365333 1.024 0.512 1.536-0.853333 1.877333-0.682667 1.024 0.512-1.877333 3.072-3.925333 2.389333-4.949333-1.536-0.512-2.048-1.706667-3.072-2.901334-2.389333-1.024 0.682667-1.536 2.218667-1.024 3.413333 0.341333 1.194667-0.682667 2.56-2.56 3.072-1.706667 0.512-2.730667 0.170667-2.218666-0.682666 0.512-1.024-1.194667-1.194667-4.266667-0.682667-3.242667 0.512-5.973333 0-7.68-1.706667-2.901333-2.901333-5.12-3.413333-3.584-0.853333 0.512 0.853333 0.682667 1.706667 0.170667 1.706667-3.584 0-9.557333-21.333333-44.373334-154.453334-11.776-45.056-24.576-93.013333-28.501333-106.666666-3.754667-13.653333-19.797333-75.434667-35.498667-137.386667-25.088-99.157333-29.013333-112.64-31.914666-112.810667-1.706667-0.170667-9.728 0.682667-17.749334 2.048z m588.288 508.586667c-0.512 0.512-2.048 0.682667-3.242666 0.170667-1.365333-0.512-0.853333-1.024 1.024-1.024 1.877333-0.170667 2.901333 0.341333 2.218666 0.853333zM557.226667 397.482667c-0.512 0.853333-0.170667 2.048 0.853333 2.730666 0.853333 0.512 1.706667-0.170667 1.706667-1.536 0-3.072-1.024-3.584-2.56-1.194666zM302.250667 552.277333c0 1.877333 0.512 2.389333 1.024 1.024 0.512-1.194667 0.341333-2.730667-0.170667-3.242666-0.512-0.682667-1.024 0.341333-0.853333 2.218666zM303.957333 559.104c0 1.877333 0.512 2.389333 1.024 1.024 0.512-1.194667 0.341333-2.730667-0.170666-3.242667-0.512-0.682667-1.024 0.341333-0.853334 2.218667zM542.378667 760.832c-0.512 1.877333 0 3.242667 1.365333 3.242667 1.194667 0 2.048-1.536 1.877333-3.242667-0.170667-1.706667-0.682667-3.072-1.365333-3.072s-1.536 1.365333-1.877333 3.072zM294.570667 761.002667c-0.682667 0.853333-0.341333 2.048 0.512 2.56 0.853333 0.682667 2.218667 0.170667 2.901333-0.853334 0.682667-1.365333 1.536-1.194667 2.730667 0.341334 1.365333 1.877333 1.536 1.877333 0.853333-0.170667-0.682667-3.072-5.632-4.266667-6.997333-1.877333zM551.253333 760.661333c0 2.901333 5.461333 4.266667 7.509334 2.048 1.365333-1.536 1.194667-1.706667-0.853334-1.024-1.536 0.512-3.754667 0-4.778666-1.024-1.365333-1.365333-1.877333-1.365333-1.877334 0zM682.325333 760.661333c1.024 0.341333 1.536 1.706667 1.024 2.56-0.682667 1.194667-0.341333 1.365333 0.682667 0.682667 3.072-1.877333 2.389333-4.437333-0.853333-4.266667-1.877333 0-2.218667 0.512-0.853334 1.024z" /></svg>
