<?xml version="1.0" standalone="no"?><!DOCTYPE svg PUBLIC "-//W3C//DTD SVG 1.1//EN" "http://www.w3.org/Graphics/SVG/1.1/DTD/svg11.dtd"><svg t="1665556253881" class="icon" viewBox="0 0 1024 1024" version="1.1" xmlns="http://www.w3.org/2000/svg" p-id="4865" xmlns:xlink="http://www.w3.org/1999/xlink" width="200" height="200"><path d="M829.8 907.2h-647v-786h647c5.5 0 10 4.5 10 10v766c0 5.5-4.5 10-10 10z" fill="#F7C554" p-id="4866"></path><path d="M781.2 121.2v703.9c0 13-10.5 23.5-23.5 23.5H182.9v58.7h598.3c32.4 0 58.7-26.3 58.7-58.7V179.9c-0.1-32.4-26.4-58.7-58.7-58.7z" fill="#EAA83D" p-id="4867"></path><path d="M575.9 191.6H341.2c-6.5 0-11.7-5.3-11.7-11.7 0-6.5 5.3-11.7 11.7-11.7h234.6c6.5 0 11.7 5.3 11.7 11.7 0.1 6.5-5.2 11.7-11.6 11.7z" fill="#FFFFFF" p-id="4868"></path><path d="M634.5 179.9m-11.7 0a11.7 11.7 0 1 0 23.4 0 11.7 11.7 0 1 0-23.4 0Z" fill="#FFFFFF" p-id="4869"></path><path d="M781.2 103.6H182.9c-9.7 0-17.6 7.9-17.6 17.6v786c0 9.7 7.9 17.6 17.6 17.6h598.3c42 0 76.3-34.2 76.3-76.3V179.9c-0.1-42.1-34.3-76.3-76.3-76.3z m41 745c0 22.6-18.4 41.1-41.1 41.1H306v-135c0-9.7-7.9-17.6-17.6-17.6-9.7 0-17.6 7.9-17.6 17.6v134.9h-70.4V138.8h70.4v510.3c0 9.7 7.9 17.6 17.6 17.6 9.7 0 17.6-7.9 17.6-17.6V138.8h475.1c22.6 0 41.1 18.4 41.1 41.1v668.7z" fill="#2D3742" p-id="4870"></path><path d="M634.5 308.9H470.3c-9.7 0-17.6 7.9-17.6 17.6 0 9.7 7.9 17.6 17.6 17.6h164.2c9.7 0 17.6-7.9 17.6-17.6 0-9.7-7.9-17.6-17.6-17.6zM634.5 402.8H470.3c-9.7 0-17.6 7.9-17.6 17.6 0 9.7 7.9 17.6 17.6 17.6h164.2c9.7 0 17.6-7.9 17.6-17.6 0-9.7-7.9-17.6-17.6-17.6z" fill="#2D3742" p-id="4871"></path></svg>